<?xml version="1.0" encoding="UTF-8"?>
<svg id="Layer_1" data-name="Layer 1" xmlns="http://www.w3.org/2000/svg" viewBox="0 0 512 512.09">
  <defs>
    <style>
      .cls-1 {
        fill: #dfaa1e;
        stroke: #dfaa1e;
        stroke-miterlimit: 10;
        stroke-width: 4px;
      }
    </style>
  </defs>
  <g id="Phone">
    <path class="cls-1" d="m172.2,125.25c-1.09-3.53-2.14-6.82-3.08-10.15-.18-.65.07-1.42.19-2.96,2.66-.13,5.28-.37,7.9-.37,97.85-.02,195.71-.12,293.56.2,7.38.02,15.43,1.77,21.96,5.09,8.96,4.55,12.39,13.18,12.35,23.68-.24,72.02-.11,144.05-.14,216.07,0,17.16-10.82,28.4-28.3,28.65-24.58.35-49.17.12-73.76.14-11.67,0-23.35,0-35.02,0-4.93,0-10.09-.05-9.93-6.89.15-6.33,5.1-6.37,9.73-6.38,33.53-.01,67.06,0,100.58-.04,3.46,0,6.97-.13,10.37-.72,8.35-1.46,12.09-5.65,12.81-13.97.19-2.22.13-4.47.13-6.7,0-63.33.08-126.66-.15-189.99-.02-4.56-2.23-9.11-3.42-13.66-4.08,1.97-8.66,3.28-12.15,6-50.29,39.25-100.39,78.75-150.64,118.06-18.21,14.25-33.25,14.24-51.32.11-36.38-28.43-72.69-56.96-108.93-85.56-3.56-2.81-6.48-6.43-9.7-9.68,8.68-8.48,8.72-8.53,16.81-2.19,36.35,28.48,72.64,57.02,109.01,85.47,14.56,11.39,22.12,11.49,36.5.21,51.96-40.74,103.88-81.54,155.67-122.51,2.1-1.66,4.25-5.68,3.6-7.71-.63-1.98-4.72-3.32-7.51-3.99-2.82-.68-5.93-.2-8.91-.2-90.15,0-180.31,0-270.46,0h-17.76Z"/>
    <path class="cls-1" d="m252.48,481.21c-43.65.08-80.71-19.18-112.98-49.31-20.5-19.14-36.67-41.62-50.4-66.03-18.97-33.73-39.29-66.72-57.43-100.89C12.82,229.46,3.88,191.12,7.83,150.72c5.29-54.09,32.68-93.8,80.98-118.47,5.29-2.7,13.47-1.09,19.93.31,4.23.92,8.27,4.55,11.54,7.81,23.33,23.3,37.35,52.31,48,82.8,4.05,11.58.94,23.94-4.01,36.06-3.84,9.4-9.11,13.64-18.1,16.68-7.38,2.5-14.26,7.09-20.65,11.72-12.11,8.79-15.36,22.01-11.43,35.21,3.68,12.36,10.49,23.94,16.88,35.33,13.23,23.58,27.1,46.81,40.71,70.19,6.94,11.93,17.61,19.04,30.84,21.24,5.44.91,11.84-.78,17.12-2.95,7.05-2.9,13.43-7.44,20.11-11.24,17.29-9.84,35.36-9.81,49.88,3.45,26.68,24.35,45.67,54.17,54.72,89.44,3.97,15.46-.84,23.92-14.43,32.26-23.28,14.28-48.65,20.61-77.46,20.68ZM20.51,165.14c.38,34.68,8.95,66.5,24.79,95.88,19.07,35.36,39.84,69.82,59.96,104.62,18.67,32.29,42.25,60.17,74.43,79.75,46.39,28.23,93.76,30.93,141.78,3.9,10.56-5.95,11.82-8.65,8.85-20.5-6.19-24.65-20.58-45.02-35.52-64.81-5.66-7.49-13.79-13.36-21.52-18.97-6.5-4.72-14.14-4.13-21.22-.3-6.76,3.66-13.66,7.15-20.06,11.38-25.79,17.05-57.83,3.21-70.29-17.48-19.59-32.52-38.75-65.32-57.06-98.57-11.38-20.68-7.26-55.49,19.25-67.7,5.38-2.48,10.28-6,15.46-8.94,14.98-8.54,19.14-17.59,15.02-34.67-5.56-23.04-17.51-43.17-30.45-62.58-4.98-7.47-11.99-13.79-18.89-19.69-2.36-2.02-7.91-2.63-10.77-1.28-7.79,3.69-15.48,8.07-22.24,13.41-34.63,27.37-50.73,63.81-51.49,106.55Z"/>
  </g>
</svg>