<?xml version="1.0" encoding="UTF-8"?>
<svg id="Layer_1" data-name="Layer 1" xmlns="http://www.w3.org/2000/svg" viewBox="0 0 512 512.09">
  <defs>
    <style>
      .cls-1 {
        fill: #dfaa1e;
      }
    </style>
  </defs>
  <g id="annusments">
    <path class="cls-1" d="m174.14,250.43c-4.61-.42-7.97-.73-11.97-1.09v-11.54c.4-.29.79-.81,1.23-.86,11.95-1.41,12-1.4,12.18-13.49.13-8.69.15-17.38.12-26.06-.02-5.88,1.1-11.83-5.51-16.02-2.17-1.37-2.01-6.41-3.15-10.65,8.79.22,10.15-4.53,10.02-10.75-.14-6.58.2-13.16.18-19.74,0-1.78.03-4.07-.98-5.25-4.35-5.1-6.07-9.69.38-14.52.86-.65.76-3.02.6-4.54-1.97-18.13,7.67-32.75,15.01-50.65,5.39,15.94,15.38,27.9,14.31,44.03-.33,5.01-2.45,11.28,4.94,14.24.71.28.66,6.07-.79,7.44-4.58,4.31-4.07,9.33-3.7,14.59.37,5.25.7,10.5.96,15.76.19,4.07-.98,8.68,5.54,9.46.5.06,1.74,9.37-.1,10.77-6.01,4.57-5.61,10.25-5.33,16.24.58,12.56,1.31,25.11,2,38.05,3.97.44,7.52.82,11.58,1.27v11.56c-12.52,2.8-12.21,2.79-12.01,16.17.29,18.9.07,37.82.07,56.72,1.05.2,2.1.41,3.16.61,1.21-2.28,2.59-4.49,3.62-6.86,10.86-25,27.03-44.79,53.16-55.15,2.26-.9,4.39-3.6,5.39-5.96,2.82-6.68,5.03-13.63,8.02-21.98,3.69,9.68,5.02,19.44,10.44,25.59,5.5,6.25,15.75,8.01,22.68,13.34,26.99,20.78,40.36,48.8,42.04,82.66.24,4.74-2.5,11.05,5.53,12.72.67.14,1.17,2.72,1.19,4.18.09,9.74-.11,19.49.09,29.22.1,4.84-1.93,6.36-6.61,6.35-59.77-.1-119.53-.16-179.3.06-6.91.03-6.82-3.67-6.75-8.49.63-45.52,1.19-91.04,1.77-136.55.04-3.37,0-6.75,0-10.87Zm44.46,132.84c-.32-.89-.65-1.78-.97-2.67.65-.78,1.2-1.69,1.97-2.33,6.21-5.25,12.94-9.98,18.57-15.78,6.42-6.6,5.45-17.97-1.92-21.95-3.33-1.8-9.12-2.07-12.25-.3-2.65,1.5-4.35,6.99-4.19,10.61.23,5.06,4.81,6.17,9.49,5.86,1.03-.07,2.11.62,4.22,1.29-6.62,5.28-12.21,10.02-18.11,14.36-5.79,4.26-11.89,8.1-18.38,12.49,6.15.5,12.61-.91,15.9,1.68,8.58,6.76,15.49,3.99,22.95-.88,5.7-3.72,11.33-7.58,17.19-11.03,7.44-4.39,15.08-8.42,22.62-12.6,8.99,2.26,19.23,4.83,28.4,7.14,1.22,2.77,2.68,8.3,3.79,8.23,5.16-.33,10.23-2.16,15.29-3.6.43-.12.54-1.35.96-2.49-1.65-1.49-3.32-3.01-4.35-3.94-3.37.94-5.85,1.63-8.33,2.33-.19-.82-.38-1.63-.57-2.45,3.37-1.25,6.83-2.29,10.09-3.79,3.32-1.54,6.6-3.29,9.61-5.35,8.89-6.08,10.57-16.2,4.3-24.7-4.61-6.24-11.78-5.95-15.05,1.03-1.18,2.53-1.81,7.38-.43,8.6,2.63,2.32,6.89,2.77,10.15,3.89-13.09,16.44-41.39,17.88-53.19,1.01-7.78-11.13-13.71-23.56-20.43-35.43-2.15-3.81-.9-5.88,3.37-6.51,10.37-1.53,20.72-3.21,31.1-4.68,4.94-.7,9.92-1.07,14.98-1.6v10.61c1.09.78,2.18,1.55,3.27,2.33,1.58-2.71,3.69-5.25,4.61-8.16,1.17-3.73,2.96-8.56,1.52-11.42-1.17-2.32-6.88-3.74-10.29-3.31-15.85,2.01-31.62,4.71-47.38,7.35-15.09,2.53-17.09,7.15-9.72,20.86,5.58,10.39,10.95,20.9,16.18,31.47,3.16,6.39.97,10.85-5.3,14.15-9.72,5.11-19.09,10.86-28.8,16-3.35,1.77-7.24,2.5-10.88,3.71Zm-29.58-127.51c0,27.91,0,55.81,0,83.72,0,11.06-.08,22.12.2,33.17.04,1.43,2.06,2.82,3.16,4.23,1.07-1.25,2.59-2.34,3.08-3.78.57-1.67.28-3.64.28-5.48,0-74.51,0-149.01-.02-223.52,0-2.36.06-4.82-.59-7.02-.31-1.03-2.19-2-3.47-2.19-.68-.1-2.15,1.46-2.32,2.44-.41,2.31-.31,4.71-.31,7.08-.01,37.12,0,74.24-.01,111.36Zm151.74,107.65c-1.26,1.96-2.25,4.19-3.83,5.84-3.1,3.23-6.05,7.39-9.94,8.91-6.23,2.44-13.12,3.65-19.83,4.3-17.06,1.66-17.88.95-24.95-14.39-.05-.1-.84.15-1.27.25-4.67,9.77-3.02,16.32,5.59,19.91,3.28,1.37,7.22,2.41,10.65,1.97,11.37-1.44,22.85-2.84,33.91-5.72,12.6-3.27,13.8-6.41,9.68-21.08Zm-19.95-48.92c-14.24-1.24-25.71,7.15-39.51,11.12,6.16,4.19,21.83-.19,39.51-11.12Zm-30.26,35.87c.38,1.25.75,2.5,1.13,3.75,7.33-2.65,14.66-5.3,21.98-7.95-.39-1.14-.77-2.29-1.16-3.43-7.32,2.54-14.64,5.08-21.96,7.63Zm-13.31-35.45c8.23,4.53,9.02,4.11,13.01-6.15-.59-.43-1.53-1.41-1.77-1.26-3.55,2.22-7.01,4.58-11.24,7.41Zm19.5,18.27c.08,1.49.16,2.99.24,4.48,2.68.24,5.35.48,8.03.71-.02-2.23-.05-4.46-.07-6.69-2.73.5-5.47,1-8.2,1.5Zm-6.5-48.03c-.03-.79-.05-1.58-.08-2.37h-16.5c.02,1.06.05,2.12.07,3.18,5.5-.27,11.01-.54,16.51-.81Z"/>
    <path class="cls-1" d="m33.32,491.75c8.57-4.78,14.98-8.36,23.4-13.06-7.99-3.32-13.07-5.67-8.31-13.12,3.83-5.98,8.33-6.92,11.68-.64,2.85,5.37,5.5,4.12,9.33,1.78,2.73-1.66,6.17-2.29,8.65-4.2,1.97-1.53,4.19-4.3,4.21-6.55.15-17.55-.14-35.11-.43-52.67-.07-4.45-.92-8.9-.92-13.34-.06-79.54-.05-159.09-.04-238.63,0-25.72,10.01-47.41,27.05-66.12,29.48-32.35,67.46-50.69,108.25-63.36,41.95-13.04,25.23-12.8,67.18-.14,31.08,9.38,60.26,23.15,86.34,42.88,20.34,15.38,36.53,34.05,44.73,58.56,2.29,6.84,3.6,14.33,3.63,21.53.27,76.12.18,152.24.21,228.36.01,23.36,0,46.72.22,70.08.06,6.29.64,12.62,1.53,18.85,1.89,13.2,9.83,18.93,22.9,15.64,9.6-2.41,18.89-6.15,28.19-9.63,5.11-1.91,9.95-4.53,16.23-5.85-2.13,3.97-4.4,7.87-6.34,11.92-1.96,4.09-3.6,8.34-5.98,13.93-.39-4.94-.67-8.49-.99-12.67-19.99,5.82-39.72,23.21-59.4.76-14.52,14.84-25.31,18.03-39.66,10.47,5.24-.78,8.89-1.46,12.57-1.84,5.44-.57,8.33-3.61,7.78-8.89-1.13-10.91-3.03-21.75-3.99-32.68-.4-4.54.77-9.23,1.23-13.85,1.23-.02,2.45-.04,3.68-.06,1.53,11.13,3.09,22.26,4.56,33.39.24,1.82-.38,3.88.27,5.47.76,1.87,2.47,3.35,3.77,4.99,1.06-1.62,2.98-3.21,3.03-4.85.53-17.61.87-35.22,1.04-52.84.05-5.78-.8-11.56-.8-17.34-.06-80.07-.64-160.15.27-240.21.34-30.26-11.21-53.71-32.42-73.82-28.39-26.91-63.45-41.12-99.52-54.02-18.26-6.53-35.2-6.3-53.33.08-33.14,11.67-65.28,24.94-92.59,47.73-24.81,20.71-39.6,46.04-39.46,79.57.37,94.03.06,188.05-.11,282.08-.01,6.53-.61,13.14-1.82,19.55-1.01,5.35-3.58,8.7-10.59,9.21-8.3.6-16.99,3.24-21.02,12.35-4.39,9.93-13.19,10.4-24.21,11.19Z"/>
    <path class="cls-1" d="m288.21,87.95c-14.21,25.89-6.51,48.24,5.85,60.25,12.2,11.86,34.6,18.58,57.94,5.41-5.85,13.37-25.75,24.57-41.18,23.19-22.29-2-39.78-16.02-44.76-35.89-5.2-20.73,2.81-40.7,22.15-52.96Z"/>
    <path class="cls-1" d="m267.23,441.59c-7.89,12.5-20.28,19.27-35.25,21.49-8.91,1.32-17.89.83-25.95-4.14-5.44-3.36-7.97-.56-9.97,4.37.98.9,1.61,1.84,2.49,2.23,12.62,5.57,11.32,10.97,3.52,19.72-4.94,5.53-12.26,10.44-19.37,12.2-14.55,3.61-25.56-10.38-20.45-25.33,1.92-5.63,6.2-10.46,10.15-14.98-2,6.31-4.77,12.5-5.8,18.96-1.11,7.01,3.1,11.2,10.29,12.18,7.44,1.02,18.1-3.41,18.71-8.47.24-1.97-2.09-5.45-4.06-6.25-5.39-2.18-5.39-5.88-4.16-10.24,3.69-13.12,15.75-17.36,27-9.53,8.79,6.12,18.33,4.73,27.15,1.25,9.08-3.59,17.42-9.04,25.7-13.47Z"/>
    <path class="cls-1" d="m132.68,477.09c-13.8,7.26-18.51,4.32-18.59-9.75-.05-8.68-.17-17.36.08-26.03.09-3.23,1.12-6.43,1.91-10.62.63,11.63.81,22.07,2.01,32.39.35,3.05,3.16,7.52,5.65,8.14,2.5.62,6.31-2.34,8.93-4.49,1.86-1.52,2.71-4.29,4.01-6.51.88.68,1.76,1.35,2.64,2.03-1.01,4.41-2.02,8.82-3.11,13.56,9.66-.28,16.03-6.22,17.43-14.78.35-2.12,1.33-4.22,2.45-6.06.25-.41,3.41.32,3.41.5-.03,2.45.35,5.33-.79,7.27-3.03,5.17-6.96,9.81-10.11,14.92-2.65,4.29-4.57,9.02-7.1,13.38-.85,1.47-2.6,2.42-3.94,3.61-.96-1.28-2.48-2.44-2.78-3.87-.91-4.21-1.34-8.53-2.09-13.7Z"/>
    <path class="cls-1" d="m350.53,477.7c-3.59,3.9-8.56,4.55-14.18.38-1.58-1.17-3.84-1.59-5.85-2.01-7.74-1.61-8.69-3.96-3.9-10.32,2.64-3.5,5.37-6.92,8.07-10.37.8.56,1.6,1.11,2.4,1.67.7,2.41,1.22,4.89,2.14,7.22,1.19,2.99,2.03,7.26,4.27,8.32,1.95.92,5.65-1.85,9.13-3.2,8.33,6.7,9.2,6.32,14.9-3.75,1.19-2.09,6.06-4.27,7.83-3.43,5.16,2.43,7.54,7.71,5.06,13.04-1.1,2.36-5.21,3.87-8.25,4.64-3.09.79-6.56.49-9.8.13-3.65-.4-7.24-1.4-11.83-2.34Z"/>
    <path class="cls-1" d="m302.1,479.48c-3.35-4.09-7.33-6.79-7.32-9.46.02-3.31,2.81-8.67,5.4-9.35,2.85-.75,6.83,2.82,11.58,5.11,4.45-1.99,4.55-7.27,4.61-12.5.05-4.21-.4-8.63,6.31-9.57-.03,9.6-2.26,17.91-8.57,25.05-3.2,3.63-6.89,7.21-8.83,11.5-4.63,10.27-13.88,9.49-22.78,10.27,6.72-3.79,13.44-7.58,19.59-11.05Z"/>
    <path class="cls-1" d="m288.74,457.03c-3.73,2.03-7.77,3.64-11.11,6.17-5.42,4.12-12.44,7.88-15.1,13.52-5.4,11.49-14.21,14.08-26.33,14.55,7.77-4.41,14.55-8.26,23.66-13.43-10.3-2.54-12.71-6.48-8.35-13.76,3.01-5.02,5.72-5.05,9.97-1.82,1.99,1.51,5.41,3.48,7.01,2.73,6.41-2.98,12.36-6.95,18.48-10.56.59.86,1.18,1.72,1.77,2.58Z"/>
    <path class="cls-1" d="m82.51,490.61c6.86-3.8,13.72-7.59,22.96-12.71-9.94-2.44-13.79-6.22-8.62-13.38,1.36-1.89,4.44-4.73,5.39-4.28,2.46,1.16,5.37,3.61,5.96,6.06,2.62,10.91-5.59,22.07-16.83,23.79-2.8.43-5.57.99-8.36,1.49-.17-.32-.34-.65-.5-.97Z"/>
    <path class="cls-1" d="m498.4,476.46c3.32-15.11-7.19-32.1,5.91-45.7-4.2,14.99,4.11,31.6-5.91,45.7Z"/>
    <path class="cls-1" d="m340.98,110.99c-1.19,3.03-2.43,6.21-3.51,8.98h-8.44c-1.12-2.84-2.35-5.98-3.54-9,2.13-1.26,5.13-3.05,7.63-4.54,2.6,1.5,5.45,3.16,7.86,4.56Z"/>
    <path class="cls-1" d="m7.68,482.88c12.37-3.68,22.31-10.18,27.8-22.35-3.51,16.45-12.24,23.54-27.8,22.35Z"/>
    <path class="cls-1" d="m456.99,445.87c.21-2.27.39-4.29.58-6.31-4.39-.22-8.78-.44-15.31-.77,5.94-2.43,10.47-4.89,15.31-6,2.24-.52,5.09,1.58,7.66,2.5-1.24,2.64-2.19,5.48-3.82,7.84-.92,1.34-2.97,1.9-4.41,2.75Z"/>
    <path class="cls-1" d="m216.14,484.82c7.11-4.15,15.37-8.97,21.25-12.4-7.02,12.47-9.97,14.26-21.25,12.4Z"/>
    <path class="cls-1" d="m335.11,495.07c3.87-.91,7.74-1.81,11.61-2.72.26,1.01.52,2.03.79,3.04-3.72,1.01-7.43,2.01-11.15,3.02-.42-1.11-.83-2.22-1.25-3.33Z"/>
    <path class="cls-1" d="m58.35,490.68c1.07-1.66,1.66-3.62,2.54-3.76,3.01-.47,6.12-.34,9.19-.27.29,0,.95,1.46.73,1.89-.43.85-1.32,1.99-2.08,2.04-3.14.23-6.31.1-10.39.1Z"/>
    <path class="cls-1" d="m313.47,495.99c-4.76,1.29-8.08,2.36-11.48,2.97-.69.12-1.69-1.46-2.55-2.26,3.28-1.22,6.53-2.6,9.89-3.54.71-.2,1.87,1.22,4.14,2.82Z"/>
    <path class="cls-1" d="m253.32,499.75c.35.38-.51-.56-1.38-1.5,1.37-.51,2.74-1.42,4.12-1.45,2.6-.06,5.21.38,7.81.62-1.28.78-2.47,1.89-3.86,2.24-1.56.39-3.29.09-6.69.09Z"/>
  </g>
</svg>