<?xml version="1.0" encoding="UTF-8"?>
<svg id="Layer_1" data-name="Layer 1" xmlns="http://www.w3.org/2000/svg" viewBox="0 0 512 512.09">
  <defs>
    <style>
      .cls-1 {
        fill: #dfaa1e;
        stroke: #dfaa1e;
        stroke-miterlimit: 10;
        stroke-width: 4px;
      }
    </style>
  </defs>
  <g id="live_chat" data-name="live chat">
    <path class="cls-1" d="m369.58,273.33c0,34.52-.7,69.06.25,103.55.61,22.07-13.63,35-35.1,34.83-52.94-.44-105.88-.03-158.82-.28-6.96-.03-11.93,1.89-16.66,7.11-23.35,25.77-47.09,51.17-70.57,76.82-5.55,6.05-11.47,10.42-20.09,7.08-8.55-3.32-10.24-10.38-10.16-18.69.19-20.96-.12-41.94.16-62.9.09-7-2.54-9.91-9.49-9.3-26.44,2.32-41.94-9.39-41.4-41.86,1.12-66.72.32-133.46.34-200.2,0-24.78,11.22-35.89,36.22-35.9,35.55-.02,71.1-.17,106.65.14,7.21.06,10.46-2.23,11.92-9.44,12.7-62.64,66.15-110.04,129.82-115.51,78.24-6.72,145.85,44.47,158.65,122.04,3.59,21.73,2,44.34,2.32,66.55.1,7.05,2.88,11.15,7.54,16.67,7.93,9.4,16.81,11.93,27.91,13.31,8.66,1.08,14.85,10.03,14.98,19.88.31,22.5.43,45.01-.04,67.5-.27,12.8-8.9,20.84-21.79,20.71-7.34-.08-12.96,1.34-16.22,8.53-.79,1.74-2.54,3.61-4.28,4.24-7.99,2.9-8.8,9.33-9.39,16.52-5.2,63.45-59.87,120.29-123.36,128.6-8.64,1.13-17.76.4-24.58,8.19-1.85,2.11-6.67,2.17-10.14,2.21-17.13.21-34.27.15-51.4.07-11.61-.05-16.5-4.76-16.69-16.14-.16-9.46-.19-18.92.03-28.38.24-10.42,4.72-14.81,15.24-14.88,18.16-.13,36.32-.32,54.47.17,4.18.11,8.26,2.98,12.43,4.45,2.97,1.04,6.14,2.94,9.01,2.62,47.31-5.28,84.09-40.33,92.18-87.35,1.16-6.74.97-12.11-6.32-15.98-6.15-3.26-8.85-9.57-8.84-16.82.06-33.75.02-67.5.03-101.25,0-8.17,4.15-13.72,10.62-18.37,2.71-1.95,5.81-5.7,5.84-8.65.18-19.92.78-39.95-1.01-59.75-4.28-47.5-43.82-86.87-90.83-91.96-50.05-5.42-96.65,24.29-111.68,71.19-3.05,9.52-2.11,10.9,7.78,10.91,39.9.03,79.8.47,119.69-.19,19.06-.31,35.7,10.85,35.04,34.88-.97,35-.25,70.05-.25,105.08Zm-180.77-130.18c-49.37,0-98.74-.03-148.1.02-15.33.02-23.04,7.82-23.04,23.23-.03,70.58-.03,141.16,0,211.75,0,16.26,7.62,23.76,24.07,23.81,17.14.05,34.28-.17,51.41.22,2.57.06,5.09,2.75,7.63,4.22-2.58,1.72-5.01,4.53-7.78,4.92-5.52.79-11.24.5-16.85.18-5.85-.34-8.56,2.02-8.54,7.87.05,21.99-.13,43.99.23,65.97.04,2.75,2.21,6.97,4.39,7.77,2.13.78,6.3-1.21,8.28-3.24,10.17-10.44,19.93-21.27,29.81-31.99,11.44-12.41,22.91-24.79,34.17-37.36,1.5-1.68,1.89-4.36,2.79-6.58-2.23-.8-4.42-1.89-6.72-2.3-2.23-.4-4.8.5-6.84-.23-2.73-.98-5.08-2.97-7.6-4.53,2.42-1.63,4.68-3.65,7.32-4.76,1.74-.73,4.04-.15,6.08-.15,65.23,0,130.45.01,195.68,0,17.75,0,25.46-7.53,25.47-25,.04-69.56.03-139.12,0-208.68,0-17.67-7.55-25.12-25.29-25.12-48.86-.02-97.71,0-146.57,0Zm231.28,25.51c0,13.39.19,22.6-.07,31.8-.17,6.22,2.57,8.99,8.64,8.87,2.81-.06,5.62-.06,8.44-.05,5.05.03,7.59-2.48,7.5-7.5-.39-21.46,1.51-43.27-1.69-64.31-8.96-58.81-42.52-98.88-100.07-114.71-57.94-15.94-106.84,2.1-145.19,48.09-13.14,15.75-21.15,34.31-25.5,54.31-.53,2.43,1.32,7.65,2.52,7.79,6.02.73,12.58,1.39,18.14-.41,2.65-.86,3.85-7.14,5.12-11.16,14.35-45.38,54.24-76.3,103.2-79.86,43.31-3.15,86.98,22.79,107.33,63.36,10.81,21.55,12.65,44.47,11.61,63.78Zm-16.82,112.16c0,16.09-.15,32.19.06,48.28.12,9.48,4.84,14.11,14.27,14.3,9.71.19,19.42.19,29.13,0,9.55-.19,14.03-4.46,14.51-14.09.39-7.9.19-15.83.19-23.75,0-23.76.13-47.51-.11-71.27-.12-11.56-4.58-15.67-15.92-15.74-8.69-.05-17.37-.05-26.06,0-11.52.07-15.95,4.27-16.04,15.52-.12,15.58-.03,31.16-.02,46.75Zm-92.2,192.35c-.01,12.15.56,13.04,12.62,11.43,35.43-4.73,64.86-20.81,88.06-48.01,17.91-21,28.03-45.51,31.56-72.74.42-3.22-.36-9.31-1.59-9.58-5.81-1.3-12.12-1.88-17.94-.88-2.07.35-4.16,5.74-4.7,9.08-8.55,53.04-45.06,89.94-97.43,98.12q-10.58,1.65-10.59,12.58Zm-42.68,21c8.68,0,17.36-.17,26.03.06,5.24.14,7.56-2.21,7.58-7.21.04-8.67.08-17.35.02-26.03-.04-5.36-2.87-7.73-8.24-7.69-16.84.1-33.69.09-50.54.02-5.54-.02-7.73,2.54-7.58,8.02.23,8.67.23,17.35,0,26.02-.13,4.9,1.77,6.95,6.69,6.85,8.67-.18,17.35-.05,26.03-.04Zm202.22-213.87c0,11.75-.02,23.51,0,35.26.02,10.19,2.27,12.18,12.3,10.95,7.4-.9,11.57-5.5,11.63-13.57.14-18.39.06-36.79.05-55.19,0-3.83.23-7.7-.19-11.49-.87-7.74-6.66-11.16-16.44-11.02-8.61.13-7.28,6.1-7.32,11.32-.08,11.24-.03,22.48-.03,33.72Z"/>
    <path class="cls-1" d="m188.57,301.71c39.36,0,78.72,0,118.08,0,2.3,0,4.8-.48,6.84.26,2,.72,3.54,2.72,5.27,4.16-1.68,1.49-3.17,3.39-5.12,4.34-1.46.71-3.51.2-5.3.2-79.49,0-158.98.03-238.47-.07-4.18,0-10.93,1.96-10.76-4.82.16-6.16,6.71-3.97,10.59-3.98,39.62-.16,79.23-.1,118.85-.09Z"/>
    <path class="cls-1" d="m188.37,352.37c-39.36,0-78.72,0-118.08,0-2.3,0-4.77.43-6.84-.28-1.79-.62-3.13-2.57-4.66-3.94,1.47-1.51,2.7-3.57,4.49-4.38,1.71-.78,4.02-.31,6.06-.31,79.74,0,159.48,0,239.23,0,1.28,0,2.81-.44,3.78.11,2.29,1.29,4.31,3.05,6.43,4.63-2.06,1.38-4.09,3.87-6.2,3.94-11.74.4-23.51.22-35.26.23-29.65,0-59.3,0-88.94,0Z"/>
    <path class="cls-1" d="m227.19,189.4c-4.07,22.21-7.69,42.78-11.71,63.28-.98,5.01-4.82,7.63-10.18,7.41-5.89-.24-8.68-3.98-9.66-9.15-2.86-15.02-5.49-30.08-8.23-45.11-.87-4.76-2.32-9.49-2.5-14.27-.09-2.42,2.03-4.93,3.15-7.4,1.98,1.87,5.26,3.46,5.73,5.65,2.69,12.7,4.55,25.58,7.11,38.31.57,2.82,2.84,5.3,4.33,7.93,1.78-2.66,4.53-5.1,5.17-8.01,2.79-12.68,4.76-25.54,7.57-38.22.48-2.17,3.62-3.75,5.54-5.61,1.43,2.02,2.87,4.04,3.69,5.2Z"/>
    <path class="cls-1" d="m268.66,260.12c-18.88-.07-16.9,2-16.98-16.6-.06-16.85.17-33.71-.1-50.56-.11-6.48,2.01-9.48,8.82-9.06,6.36.39,12.8-.27,19.13.32,2.11.19,4,2.8,5.99,4.3-1.99,1.47-3.84,3.22-6.01,4.31-1.23.62-3.01.15-4.54.16-14.21.11-14.47.62-14.48,14.68,0,7.16,2.73,10.18,9.98,10.21,2.23,0,4.45,2.79,6.67,4.3-2.25,1.45-4.37,3.86-6.77,4.18-9.38,1.27-10.05,2.45-9.87,15.66.1,7.71,4.13,9.64,10.77,9.3,3.05-.16,6.27-.52,9.14.24,1.97.52,3.47,2.82,5.19,4.33-1.81,1.41-3.46,3.69-5.46,4.04-3.71.66-7.63.19-11.46.19Z"/>
    <path class="cls-1" d="m92.16,221.98c0-9.46-.36-18.94.2-28.36.19-3.18,2.51-8.74,4.21-8.88,5.81-.46,4.41,4.93,4.45,8.44.15,14.82.05,29.65.07,44.47.01,13.01.6,13.57,13.98,13.64,2.04.01,4.35-.51,6.07.26,1.99.89,3.47,2.94,5.17,4.48-1.64,1.34-3.22,3.76-4.92,3.85-8.16.4-16.39.6-24.5-.18-1.78-.17-4.36-4.53-4.49-7.07-.52-10.2-.21-20.44-.22-30.66Z"/>
    <path class="cls-1" d="m150.68,221.72c0-9.95-.31-19.92.21-29.84.14-2.62,2.85-5.1,4.38-7.65,1.66,2.44,4.72,4.85,4.77,7.32.39,20.4.39,40.82,0,61.23-.05,2.41-3.16,4.76-4.85,7.13-1.5-2.52-4.17-4.99-4.3-7.58-.5-10.18-.21-20.4-.21-30.61Z"/>
  </g>
</svg>